<svg id="Capa_1" enable-background="new 0 0 512 512" height="512" viewBox="0 0 512 512" width="512" xmlns="http://www.w3.org/2000/svg"><g><path d="m437.019 74.981-195.172 166.866-166.866 195.172c99.974 99.974 262.064 99.974 362.039 0 99.974-99.974 99.974-262.064-.001-362.038z" fill="#edd7b0"/><path d="m74.981 74.981c-99.974 99.974-99.974 262.064 0 362.039l362.038-362.039c-99.974-99.975-262.064-99.975-362.038 0z" fill="#f7ecd9"/><path d="m108.318 272.837h359.038v30h-359.038z" fill="#a05f4b" transform="matrix(.707 -.707 .707 .707 -119.226 287.837)"/><path d="m44.627 209.146h359.038v30h-359.038z" fill="#c47e4e" transform="matrix(.707 -.707 .707 .707 -92.844 224.146)"/><path d="m203.884 336.51h295.252v30h-295.252z" fill="#a05f4b" transform="matrix(.707 -.707 .707 .707 -145.6 351.51)"/><path d="m12.847 145.473h295.252v30h-295.252z" fill="#c47e4e" transform="matrix(.707 -.707 .707 .707 -66.47 160.473)"/></g></svg>